<?xml version="1.0" encoding="UTF-8" standalone="no"?><!DOCTYPE svg PUBLIC "-//W3C//DTD SVG 1.1//EN" "http://www.w3.org/Graphics/SVG/1.1/DTD/svg11.dtd"><svg width="100%" height="100%" viewBox="0 0 2000 2000" version="1.1" xmlns="http://www.w3.org/2000/svg" xmlns:xlink="http://www.w3.org/1999/xlink" xml:space="preserve" xmlns:serif="http://www.serif.com/" style="fill-rule:evenodd;clip-rule:evenodd;stroke-linecap:round;stroke-linejoin:round;stroke-miterlimit:1.5;"><rect id="Artboard1" x="0" y="0" width="2000" height="2000" style="fill:none;"/><g id="Artboard11" serif:id="Artboard1"><g><path d="M792.394,699.943c-1.773,623.357 0,600 0,600" style="stroke:#000;stroke-width:62.5px;"/><path d="M1209.182,699.943c-1.773,623.357 0,600 0,600" style="stroke:#000;stroke-width:62.5px;"/><path d="M1626.919,699.943c-1.773,623.357 0,600 0,600" style="stroke:#000;stroke-width:62.5px;"/><path d="M376.394,699.943c-1.773,623.357 0,600 0,600" style="stroke:#000;stroke-width:62.5px;"/><g><path d="M375.606,699.943c0,0 -10.594,-211.904 211.447,-211.447" style="fill-opacity:0;stroke:#000;stroke-width:62.5px;"/><path d="M580.947,488.576c0,0 211.904,-10.594 211.447,211.447" style="fill-opacity:0;stroke:#000;stroke-width:62.5px;"/></g><g><path d="M792.474,699.864c0,0 -10.594,-211.904 211.447,-211.447" style="fill-opacity:0;stroke:#000;stroke-width:62.5px;"/><path d="M997.815,488.497c0,0 211.904,-10.594 211.447,211.447" style="fill-opacity:0;stroke:#000;stroke-width:62.5px;"/></g><g><path d="M1626.05,1300.136c0,0 10.594,211.904 -211.447,211.447" style="fill-opacity:0;stroke:#000;stroke-width:62.5px;"/><path d="M1420.71,1511.503c0,0 -211.904,10.594 -211.447,-211.447" style="fill-opacity:0;stroke:#000;stroke-width:62.5px;"/></g></g></g></svg>